<svg width="1067" height="126" viewBox="0 0 1067 126" fill="none" xmlns="http://www.w3.org/2000/svg">
<path fill-rule="evenodd" clip-rule="evenodd" d="M120 62.72H0V60.72H120V62.72Z" fill="white"/>
<path d="M178.92 76.8V48.64C178.92 29.0133 178.813 17.4933 178.6 14.08C178.387 11.2 177.8 9.12 176.84 7.83999C175.987 6.45333 174.28 5.49333 171.72 4.95999C170.44 4.64 168.627 4.48 166.28 4.48C165.427 4.48 165 4.16 165 3.51999C165 2.66666 165.853 2.24 167.56 2.24C169.693 2.24 172.2 2.29333 175.08 2.4C177.96 2.4 180.413 2.45333 182.44 2.56C184.467 2.66666 185.533 2.71999 185.64 2.71999C185.96 2.71999 188.68 2.66666 193.8 2.56C199.027 2.34667 202.6 2.24 204.52 2.24C217.533 2.24 227.293 4.58666 233.8 9.27999C236.467 11.2 238.973 14.08 241.32 17.92C243.667 21.76 244.84 26.1333 244.84 31.04C244.84 43.7333 238.387 56.0533 225.48 68C242.44 89.76 253.533 103.413 258.76 108.96C265.053 115.573 271.56 119.413 278.28 120.48C280.307 120.8 282.387 120.96 284.52 120.96C285.48 120.96 285.96 121.28 285.96 121.92C285.96 122.773 284.68 123.2 282.12 123.2H270.76C263.08 123.2 257.373 122.187 253.64 120.16C251.507 118.987 249.107 117.067 246.44 114.4C243.88 111.733 241.96 109.6 240.68 108C239.4 106.293 236.52 102.507 232.04 96.64C229.587 93.3333 226.28 88.8533 222.12 83.2C217.96 77.44 215.453 74.0267 214.6 72.96C213.96 72.32 213.267 72 212.52 72L192.84 71.68C192.093 71.68 191.72 72.1067 191.72 72.96V76.8C191.72 95.4667 191.987 107.04 192.52 111.52C192.84 114.187 193.373 116.267 194.12 117.76C194.973 119.147 196.52 120 198.76 120.32C201.747 120.747 204.147 120.96 205.96 120.96C206.813 120.96 207.24 121.28 207.24 121.92C207.24 122.773 206.387 123.2 204.68 123.2C202.12 123.2 199.24 123.147 196.04 123.04C192.947 123.04 190.333 122.987 188.2 122.88C186.173 122.773 185.107 122.72 185 122.72H183.88C183.133 122.827 182.173 122.88 181 122.88C179.827 122.987 178.6 123.04 177.32 123.04C176.04 123.04 174.707 123.04 173.32 123.04C171.933 123.147 170.813 123.2 169.96 123.2C168.253 123.2 167.4 122.773 167.4 121.92C167.4 121.28 167.827 120.96 168.68 120.96C169.96 120.96 171.56 120.747 173.48 120.32C175.827 119.893 177.373 116.96 178.12 111.52C178.653 107.04 178.92 95.4667 178.92 76.8ZM191.72 10.24V62.56C191.72 63.4133 192.093 64.0533 192.84 64.48C195.72 66.1867 201.32 67.04 209.64 67.04C214.76 67.04 218.76 66.0267 221.64 64C228.147 59.52 231.4 51.3067 231.4 39.36C231.4 29.3333 228.893 21.4933 223.88 15.84C218.973 10.1867 212.253 7.36 203.72 7.36C198.707 7.36 195.133 7.68 193 8.32C192.147 8.64 191.72 9.28 191.72 10.24Z" fill="white"/>
<path d="M307.545 76.8V48.64C307.545 29.0133 307.438 17.4933 307.225 14.08C307.012 11.2 306.425 9.12 305.465 7.83999C304.612 6.45333 302.905 5.49333 300.345 4.95999C300.025 4.85333 299.598 4.8 299.065 4.8C298.532 4.69333 297.892 4.64 297.145 4.64C296.505 4.53333 296.025 4.48 295.705 4.48C294.318 4.26666 293.625 3.94666 293.625 3.51999C293.625 2.66666 294.478 2.24 296.185 2.24C301.518 2.24 307.545 2.4 314.265 2.71999C336.238 2.71999 348.452 2.66666 350.905 2.56C354.852 2.34667 357.305 2.02667 358.265 1.6C359.118 1.17333 359.705 0.959997 360.025 0.959997C360.452 0.959997 360.665 1.44 360.665 2.4C360.665 2.61333 360.452 3.52 360.025 5.12C359.705 6.61333 359.492 8.21333 359.385 9.92L358.745 19.52C358.532 21.3333 358.105 22.24 357.465 22.24C356.612 22.24 356.185 21.5467 356.185 20.16C356.185 18.0267 355.918 16.2667 355.385 14.88C354.318 11.5733 350.478 9.6 343.865 8.96C341.092 8.64 333.785 8.48 321.945 8.48C321.305 8.48 320.985 9.01333 320.985 10.08V54.24C320.985 55.3067 321.305 55.84 321.945 55.84C336.452 55.84 344.932 55.7333 347.385 55.52C351.438 55.2 354.105 54.2933 355.385 52.8C356.238 51.7333 356.878 51.2 357.305 51.2C357.838 51.2 358.105 51.6267 358.105 52.48C358.105 52.6933 357.998 53.1733 357.785 53.92C357.678 54.6667 357.518 55.7333 357.305 57.12C357.092 58.5067 356.932 59.9467 356.825 61.44C356.612 63.36 356.452 65.6533 356.345 68.32C356.238 70.88 356.185 72.2133 356.185 72.32C355.972 73.92 355.598 74.72 355.065 74.72C354.318 74.72 353.945 73.8667 353.945 72.16C353.945 70.4533 353.732 68.96 353.305 67.68C352.558 64.6933 349.785 62.9333 344.985 62.4C340.185 61.8667 332.558 61.6 322.105 61.6C321.358 61.6 320.985 61.9733 320.985 62.72V76.8C320.985 77.76 320.985 80.5333 320.985 85.12C320.985 89.6 320.985 93.6533 320.985 97.28C320.985 100.907 320.985 103.2 320.985 104.16C321.198 107.68 321.625 110.347 322.265 112.16C323.012 113.867 324.345 115.093 326.265 115.84C328.612 116.8 333.038 117.28 339.545 117.28C345.945 117.28 350.745 116.8 353.945 115.84C356.398 115.093 358.212 113.867 359.385 112.16C360.558 110.347 361.465 107.627 362.105 104C362.425 102.4 362.905 101.6 363.545 101.6C364.185 101.6 364.505 102.4 364.505 104C364.505 104.747 364.238 107.147 363.705 111.2C363.172 115.253 362.745 118.027 362.425 119.52C361.892 121.547 361.145 122.72 360.185 123.04C359.225 123.467 357.092 123.68 353.785 123.68C350.692 123.68 342.905 123.52 330.425 123.2C317.625 122.88 310.958 122.72 310.425 122.72C309.358 122.72 307.492 122.827 304.825 123.04C302.158 123.253 300.078 123.307 298.585 123.2C296.878 123.2 296.025 122.773 296.025 121.92C296.025 121.493 296.612 121.173 297.785 120.96C299.812 120.747 301.038 120.587 301.465 120.48C303.385 120.053 304.772 118.827 305.625 116.8C306.585 114.773 307.118 110.987 307.225 105.44C307.438 97.12 307.545 87.5733 307.545 76.8Z" fill="white"/>
<path d="M502.641 91.68V109.6C502.641 113.12 502.535 115.307 502.321 116.16C502.108 117.013 501.521 117.707 500.561 118.24C491.495 123.04 480.188 125.44 466.641 125.44C444.561 125.44 427.015 119.733 414.001 108.32C408.668 103.733 404.135 97.3333 400.401 89.12C396.775 80.9067 394.961 72.1067 394.961 62.72C394.961 50.6667 397.468 40.1067 402.481 31.04C407.495 21.9733 413.895 14.9867 421.681 10.08C432.455 3.36 446.641 0 464.241 0C471.921 0 480.081 0.906664 488.721 2.71999C492.348 3.57333 496.668 4.10666 501.681 4.32C502.961 4.42667 503.601 4.90667 503.601 5.76C503.601 6.08 503.495 7.09333 503.281 8.8C503.175 10.4 503.015 12.9067 502.801 16.32C502.588 19.7333 502.481 23.7867 502.481 28.48C502.481 30.72 502.001 31.84 501.041 31.84C500.508 31.84 500.135 31.04 499.921 29.44C499.601 25.4933 498.481 21.9733 496.561 18.88C494.321 15.4667 489.895 12.48 483.281 9.92C476.668 7.25333 468.561 5.92 458.961 5.92C445.095 5.92 433.681 9.44 424.721 16.48C419.921 20.32 416.081 25.8133 413.201 32.96C410.321 40 408.881 48.0533 408.881 57.12C408.881 67.04 410.695 75.9467 414.321 83.84C418.055 91.7333 421.895 97.6 425.841 101.44C437.575 112.853 451.548 118.56 467.761 118.56C476.081 118.56 482.161 117.44 486.001 115.2C488.135 114.027 489.201 112.16 489.201 109.6V82.4C489.201 75.8933 488.775 71.7333 487.921 69.92C487.175 68.1067 485.201 66.7733 482.001 65.92C480.721 65.6 478.908 65.44 476.561 65.44C475.708 65.44 475.281 65.12 475.281 64.48C475.281 63.6267 476.135 63.2 477.841 63.2C479.975 63.2 482.481 63.2533 485.361 63.36C488.241 63.4667 490.695 63.5733 492.721 63.68C494.748 63.68 495.815 63.68 495.921 63.68C496.028 63.68 497.041 63.68 498.961 63.68C500.988 63.5733 503.228 63.4667 505.681 63.36C508.241 63.2533 510.215 63.2 511.601 63.2C513.308 63.2 514.161 63.6267 514.161 64.48C514.161 65.12 513.735 65.44 512.881 65.44C512.135 65.44 510.801 65.6 508.881 65.92C506.748 66.3467 505.255 67.2533 504.401 68.64C503.655 70.0267 503.175 72.16 502.961 75.04C502.748 78.4533 502.641 84 502.641 91.68Z" fill="white"/>
<path d="M559.17 76.8V48.64C559.17 29.0133 559.063 17.4933 558.85 14.08C558.637 11.2 558.05 9.12 557.09 7.83999C556.237 6.45333 554.53 5.49333 551.97 4.95999C551.65 4.85333 551.223 4.8 550.69 4.8C550.157 4.69333 549.517 4.64 548.77 4.64C548.13 4.53333 547.65 4.48 547.33 4.48C545.943 4.26666 545.25 3.94666 545.25 3.51999C545.25 2.66666 546.103 2.24 547.81 2.24C553.143 2.24 559.17 2.4 565.89 2.71999C587.863 2.71999 600.077 2.66666 602.53 2.56C606.477 2.34667 608.93 2.02667 609.89 1.6C610.743 1.17333 611.33 0.959997 611.65 0.959997C612.077 0.959997 612.29 1.44 612.29 2.4C612.29 2.61333 612.077 3.52 611.65 5.12C611.33 6.61333 611.117 8.21333 611.01 9.92L610.37 19.52C610.157 21.3333 609.73 22.24 609.09 22.24C608.237 22.24 607.81 21.5467 607.81 20.16C607.81 18.0267 607.543 16.2667 607.01 14.88C605.943 11.5733 602.103 9.6 595.49 8.96C592.717 8.64 585.41 8.48 573.57 8.48C572.93 8.48 572.61 9.01333 572.61 10.08V54.24C572.61 55.3067 572.93 55.84 573.57 55.84C588.077 55.84 596.557 55.7333 599.01 55.52C603.063 55.2 605.73 54.2933 607.01 52.8C607.863 51.7333 608.503 51.2 608.93 51.2C609.463 51.2 609.73 51.6267 609.73 52.48C609.73 52.6933 609.623 53.1733 609.41 53.92C609.303 54.6667 609.143 55.7333 608.93 57.12C608.717 58.5067 608.557 59.9467 608.45 61.44C608.237 63.36 608.077 65.6533 607.97 68.32C607.863 70.88 607.81 72.2133 607.81 72.32C607.597 73.92 607.223 74.72 606.69 74.72C605.943 74.72 605.57 73.8667 605.57 72.16C605.57 70.4533 605.357 68.96 604.93 67.68C604.183 64.6933 601.41 62.9333 596.61 62.4C591.81 61.8667 584.183 61.6 573.73 61.6C572.983 61.6 572.61 61.9733 572.61 62.72V76.8C572.61 77.76 572.61 80.5333 572.61 85.12C572.61 89.6 572.61 93.6533 572.61 97.28C572.61 100.907 572.61 103.2 572.61 104.16C572.823 107.68 573.25 110.347 573.89 112.16C574.637 113.867 575.97 115.093 577.89 115.84C580.237 116.8 584.663 117.28 591.17 117.28C597.57 117.28 602.37 116.8 605.57 115.84C608.023 115.093 609.837 113.867 611.01 112.16C612.183 110.347 613.09 107.627 613.73 104C614.05 102.4 614.53 101.6 615.17 101.6C615.81 101.6 616.13 102.4 616.13 104C616.13 104.747 615.863 107.147 615.33 111.2C614.797 115.253 614.37 118.027 614.05 119.52C613.517 121.547 612.77 122.72 611.81 123.04C610.85 123.467 608.717 123.68 605.41 123.68C602.317 123.68 594.53 123.52 582.05 123.2C569.25 122.88 562.583 122.72 562.05 122.72C560.983 122.72 559.117 122.827 556.45 123.04C553.783 123.253 551.703 123.307 550.21 123.2C548.503 123.2 547.65 122.773 547.65 121.92C547.65 121.493 548.237 121.173 549.41 120.96C551.437 120.747 552.663 120.587 553.09 120.48C555.01 120.053 556.397 118.827 557.25 116.8C558.21 114.773 558.743 110.987 558.85 105.44C559.063 97.12 559.17 87.5733 559.17 76.8Z" fill="#BD9042"/>
<path d="M659.546 99.68V76C659.546 59.8933 659.546 47.7867 659.546 39.68C659.653 31.4667 659.706 27.1467 659.706 26.72C659.706 26.1867 659.706 19.9467 659.706 8C659.706 2.66667 660.293 0 661.466 0C661.893 0 662.373 0.266666 662.906 0.799999C663.546 1.33333 664.346 2.13333 665.306 3.2C666.266 4.26666 666.853 4.90666 667.066 5.12C671.013 9.6 687.973 27.8933 717.946 60C723.493 65.9733 730.853 74.0267 740.026 84.16C749.306 94.2933 754.746 100.16 756.346 101.76L754.586 20.48C754.48 15.1467 754 11.4667 753.146 9.44C752.4 7.30666 750.8 5.92 748.346 5.28C746 4.74667 743.706 4.48 741.466 4.48C739.973 4.48 739.226 4.10666 739.226 3.35999C739.226 2.61333 740.293 2.24 742.426 2.24C745.306 2.24 748.773 2.34667 752.826 2.56C756.88 2.66666 758.96 2.71999 759.066 2.71999C759.28 2.71999 760.933 2.66666 764.026 2.56C767.226 2.34667 770.106 2.24 772.666 2.24C774.586 2.24 775.546 2.61333 775.546 3.35999C775.546 3.89333 774.96 4.26666 773.786 4.48C772.933 4.58666 771.546 4.8 769.626 5.12C767.386 5.65333 765.893 6.82666 765.146 8.63999C764.4 10.4533 764.026 14.08 764.026 19.52L763.706 112.96C763.706 115.627 763.653 117.707 763.546 119.2C763.546 120.693 763.493 121.813 763.386 122.56C763.28 123.307 763.12 123.787 762.906 124C762.8 124.213 762.586 124.32 762.266 124.32C761.306 124.32 757.413 120.907 750.586 114.08C749.946 113.44 747.44 110.933 743.066 106.56C738.693 102.08 733.146 96.3733 726.426 89.44C719.813 82.5067 713.946 76.2667 708.826 70.72C693.893 54.6133 679.973 39.3067 667.066 24.8L669.146 101.44C669.253 107.947 669.733 112.533 670.586 115.2C671.546 117.76 673.146 119.36 675.386 120C677.84 120.64 680.506 120.96 683.386 120.96C684.24 120.96 684.666 121.28 684.666 121.92C684.666 122.773 683.706 123.2 681.786 123.2C679.12 123.2 676.453 123.147 673.786 123.04C671.226 123.04 669.146 122.987 667.546 122.88C665.946 122.773 665.04 122.72 664.826 122.72L659.386 123.04C655.653 123.147 652.346 123.2 649.466 123.2C647.76 123.2 646.906 122.773 646.906 121.92C646.906 121.28 647.333 120.96 648.186 120.96C650.64 120.96 652.826 120.64 654.746 120C656.666 119.467 657.946 117.813 658.586 115.04C659.226 112.267 659.546 107.147 659.546 99.68Z" fill="#BD9042"/>
<path d="M858.469 9.12V76.8C858.469 95.4667 858.735 107.04 859.269 111.52C859.589 114.187 860.122 116.267 860.869 117.76C861.722 119.147 863.269 120 865.509 120.32C868.495 120.747 870.895 120.96 872.709 120.96C873.562 120.96 873.989 121.28 873.989 121.92C873.989 122.773 873.135 123.2 871.429 123.2C868.869 123.2 865.989 123.147 862.789 123.04C859.695 123.04 857.082 122.987 854.949 122.88C852.922 122.773 851.855 122.72 851.749 122.72C851.642 122.72 850.575 122.72 848.549 122.72C846.629 122.827 844.389 122.933 841.829 123.04C839.375 123.147 837.455 123.2 836.069 123.2C834.362 123.2 833.509 122.773 833.509 121.92C833.509 121.28 833.935 120.96 834.789 120.96C836.069 120.96 837.669 120.747 839.589 120.32C841.935 119.893 843.482 116.96 844.229 111.52C844.762 107.04 845.029 95.4667 845.029 76.8V9.12C842.469 9.12 838.522 9.17333 833.189 9.27999C827.855 9.38667 823.909 9.44 821.349 9.44C816.335 9.54667 812.655 9.97333 810.309 10.72C808.069 11.36 806.309 12.64 805.029 14.56C803.855 16.3733 802.949 18.0267 802.309 19.52C801.882 20.5867 801.349 21.12 800.709 21.12C800.175 21.12 799.909 20.64 799.909 19.68C799.909 17.9733 801.082 12.4267 803.429 3.04C804.069 1.01333 804.602 0 805.029 0C805.242 0 806.042 0.319999 807.429 0.959997C808.815 1.49333 810.362 1.81333 812.069 1.91999C817.189 2.45333 821.402 2.71999 824.709 2.71999H884.709C889.402 2.71999 893.189 2.45333 896.069 1.91999C896.709 1.81333 897.349 1.70666 897.989 1.6C898.735 1.49333 899.269 1.38666 899.589 1.27999C900.015 1.17333 900.335 1.12 900.549 1.12C901.082 1.12 901.349 1.76 901.349 3.04C901.349 4.85333 901.242 8.16 901.029 12.96C900.922 17.76 900.869 20.32 900.869 20.64C900.869 22.0267 900.495 22.72 899.749 22.72C899.002 22.72 898.575 21.8133 898.469 20C898.469 19.7867 898.415 19.52 898.309 19.2C898.309 18.7733 898.309 18.4533 898.309 18.24C897.775 12.5867 891.215 9.65333 878.629 9.44C876.389 9.44 873.029 9.38667 868.549 9.27999C864.069 9.17333 860.709 9.12 858.469 9.12Z" fill="#BD9042"/>
<path fill-rule="evenodd" clip-rule="evenodd" d="M1066.35 62.72H946.349V60.72H1066.35V62.72Z" fill="#BD9042"/>
</svg>
