<svg width="443" height="52" viewBox="0 0 443 52" fill="none" xmlns="http://www.w3.org/2000/svg">
<line x1="-0.00012207" y1="25.5855" x2="49.7448" y2="25.5855" stroke="#BD9042" stroke-width="0.829082"/>
<path d="M74.1696 31.8367V20.1633C74.1696 12.0272 74.1254 7.2517 74.0369 5.83673C73.9485 4.64286 73.7053 3.78061 73.3073 3.25C72.9536 2.67517 72.2461 2.27721 71.1849 2.05612C70.6543 1.92347 69.9026 1.85714 68.9298 1.85714C68.576 1.85714 68.3992 1.72449 68.3992 1.45918C68.3992 1.10544 68.7529 0.928571 69.4604 0.928571C70.3447 0.928571 71.3839 0.95068 72.5777 0.994897C73.7716 0.994897 74.7886 1.01701 75.6288 1.06122C76.4689 1.10544 76.9111 1.12755 76.9553 1.12755C77.0879 1.12755 78.2155 1.10544 80.3379 1.06122C82.5046 0.972788 83.9859 0.928571 84.7818 0.928571C90.1764 0.928571 94.2223 1.90136 96.9196 3.84694C98.025 4.64286 99.0641 5.83673 100.037 7.42857C101.01 9.02041 101.496 10.8333 101.496 12.8673C101.496 18.1293 98.8209 23.2364 93.4706 28.1888C100.501 37.2092 105.1 42.869 107.267 45.1684C109.875 47.9099 112.573 49.5017 115.358 49.9439C116.198 50.0765 117.061 50.1429 117.945 50.1429C118.343 50.1429 118.542 50.2755 118.542 50.5408C118.542 50.8946 118.011 51.0714 116.95 51.0714H112.241C109.057 51.0714 106.692 50.6514 105.144 49.8112C104.26 49.3248 103.265 48.5289 102.159 47.4235C101.098 46.318 100.302 45.4337 99.7716 44.7704C99.241 44.0629 98.0471 42.4932 96.19 40.0612C95.173 38.6905 93.8022 36.8333 92.0777 34.4898C90.3533 32.102 89.3141 30.6871 88.9604 30.2449C88.6951 29.9796 88.4077 29.8469 88.0982 29.8469L79.94 29.7143C79.6305 29.7143 79.4757 29.8912 79.4757 30.2449V31.8367C79.4757 39.5748 79.5862 44.3724 79.8073 46.2296C79.94 47.335 80.1611 48.1973 80.4706 48.8163C80.8243 49.3912 81.4655 49.7449 82.3941 49.8775C83.6322 50.0544 84.6271 50.1429 85.3788 50.1429C85.7325 50.1429 85.9094 50.2755 85.9094 50.5408C85.9094 50.8946 85.5556 51.0714 84.8482 51.0714C83.7869 51.0714 82.593 51.0493 81.2665 51.0051C79.9842 51.0051 78.9009 50.983 78.0165 50.9388C77.1764 50.8946 76.7342 50.8724 76.69 50.8724H76.2257C75.9162 50.9167 75.5182 50.9388 75.0318 50.9388C74.5454 50.983 74.0369 51.0051 73.5063 51.0051C72.9757 51.0051 72.423 51.0051 71.8481 51.0051C71.2733 51.0493 70.809 51.0714 70.4553 51.0714C69.7478 51.0714 69.3941 50.8946 69.3941 50.5408C69.3941 50.2755 69.5709 50.1429 69.9247 50.1429C70.4553 50.1429 71.1186 50.0544 71.9145 49.8775C72.8873 49.7007 73.5284 48.4847 73.8379 46.2296C74.059 44.3724 74.1696 39.5748 74.1696 31.8367ZM79.4757 4.2449V25.9337C79.4757 26.2874 79.6305 26.5527 79.94 26.7296C81.1339 27.4371 83.4553 27.7908 86.9043 27.7908C89.0267 27.7908 90.6849 27.3707 91.8788 26.5306C94.576 24.6735 95.9247 21.2687 95.9247 16.3163C95.9247 12.1599 94.8856 8.90986 92.8073 6.56632C90.7733 4.22279 87.9876 3.05102 84.4502 3.05102C82.372 3.05102 80.8907 3.18367 80.0063 3.44898C79.6526 3.58163 79.4757 3.84694 79.4757 4.2449Z" fill="#BD9042"/>
<path d="M127.49 31.8367V20.1633C127.49 12.0272 127.446 7.2517 127.357 5.83673C127.269 4.64286 127.026 3.78061 126.628 3.25C126.274 2.67517 125.566 2.27721 124.505 2.05612C124.373 2.0119 124.196 1.98979 123.975 1.98979C123.753 1.94558 123.488 1.92347 123.179 1.92347C122.913 1.87925 122.714 1.85714 122.582 1.85714C122.007 1.76871 121.719 1.63605 121.719 1.45918C121.719 1.10544 122.073 0.928571 122.781 0.928571C124.992 0.928571 127.49 0.994897 130.276 1.12755C139.384 1.12755 144.447 1.10544 145.464 1.06122C147.1 0.972788 148.117 0.840136 148.515 0.663265C148.869 0.486394 149.112 0.397958 149.245 0.397958C149.422 0.397958 149.51 0.596938 149.51 0.994897C149.51 1.08333 149.422 1.45918 149.245 2.12245C149.112 2.7415 149.024 3.40476 148.98 4.11224L148.714 8.09184C148.626 8.84354 148.449 9.21939 148.184 9.21939C147.83 9.21939 147.653 8.93197 147.653 8.35714C147.653 7.47279 147.543 6.7432 147.322 6.16837C146.879 4.79762 145.288 3.97959 142.546 3.71429C141.396 3.58163 138.367 3.5153 133.459 3.5153C133.194 3.5153 133.061 3.73639 133.061 4.17857V22.4847C133.061 22.9269 133.194 23.148 133.459 23.148C139.473 23.148 142.988 23.1037 144.005 23.0153C145.685 22.8827 146.791 22.5068 147.322 21.8878C147.675 21.4456 147.941 21.2245 148.117 21.2245C148.339 21.2245 148.449 21.4014 148.449 21.7551C148.449 21.8435 148.405 22.0425 148.316 22.352C148.272 22.6616 148.206 23.1037 148.117 23.6786C148.029 24.2534 147.963 24.8503 147.918 25.4694C147.83 26.2653 147.764 27.216 147.719 28.3214C147.675 29.3827 147.653 29.9354 147.653 29.9796C147.565 30.6429 147.41 30.9745 147.189 30.9745C146.879 30.9745 146.725 30.6207 146.725 29.9133C146.725 29.2058 146.636 28.5867 146.459 28.0561C146.15 26.818 145 26.0884 143.01 25.8673C141.021 25.6463 137.859 25.5357 133.526 25.5357C133.216 25.5357 133.061 25.6905 133.061 26V31.8367C133.061 32.2347 133.061 33.3844 133.061 35.2857C133.061 37.1429 133.061 38.8231 133.061 40.3265C133.061 41.8299 133.061 42.7806 133.061 43.1786C133.15 44.6378 133.327 45.7432 133.592 46.4949C133.901 47.2024 134.454 47.7109 135.25 48.0204C136.223 48.4184 138.058 48.6173 140.755 48.6173C143.408 48.6173 145.398 48.4184 146.725 48.0204C147.742 47.7109 148.493 47.2024 148.98 46.4949C149.466 45.7432 149.842 44.6156 150.107 43.1122C150.24 42.449 150.439 42.1173 150.704 42.1173C150.969 42.1173 151.102 42.449 151.102 43.1122C151.102 43.4218 150.992 44.4167 150.771 46.0969C150.549 47.7772 150.373 48.9269 150.24 49.5459C150.019 50.3861 149.709 50.8724 149.311 51.0051C148.913 51.182 148.029 51.2704 146.658 51.2704C145.376 51.2704 142.148 51.2041 136.975 51.0714C131.668 50.9388 128.905 50.8724 128.684 50.8724C128.242 50.8724 127.468 50.9167 126.362 51.0051C125.257 51.0935 124.395 51.1156 123.776 51.0714C123.068 51.0714 122.714 50.8946 122.714 50.5408C122.714 50.3639 122.958 50.2313 123.444 50.1429C124.284 50.0544 124.793 49.9881 124.969 49.9439C125.765 49.767 126.34 49.2585 126.694 48.4184C127.092 47.5782 127.313 46.0085 127.357 43.7092C127.446 40.2602 127.49 36.3027 127.49 31.8367Z" fill="#BD9042"/>
<path d="M208.365 38.0051V45.4337C208.365 46.8929 208.321 47.7993 208.233 48.1531C208.144 48.5068 207.901 48.7942 207.503 49.0153C203.745 51.0051 199.057 52 193.442 52C184.289 52 177.015 49.6344 171.62 44.9031C169.409 43.0017 167.53 40.3486 165.983 36.9439C164.479 33.5391 163.727 29.8912 163.727 26C163.727 21.0034 164.767 16.6258 166.845 12.8673C168.923 9.10884 171.576 6.21258 174.804 4.17857C179.27 1.39286 185.151 0 192.447 0C195.631 0 199.013 0.375849 202.595 1.12755C204.098 1.48129 205.889 1.70238 207.967 1.79082C208.498 1.83503 208.763 2.03401 208.763 2.38776C208.763 2.52041 208.719 2.94048 208.631 3.64796C208.586 4.31122 208.52 5.35034 208.432 6.76531C208.343 8.18027 208.299 9.86054 208.299 11.8061C208.299 12.7347 208.1 13.199 207.702 13.199C207.481 13.199 207.326 12.8673 207.238 12.2041C207.105 10.568 206.641 9.10884 205.845 7.82653C204.916 6.41156 203.081 5.17347 200.34 4.11224C197.598 3.0068 194.238 2.45408 190.258 2.45408C184.51 2.45408 179.779 3.91326 176.064 6.83163C174.074 8.42347 172.483 10.7007 171.289 13.6633C170.095 16.5816 169.498 19.9201 169.498 23.6786C169.498 27.7908 170.25 31.483 171.753 34.7551C173.301 38.0272 174.892 40.4592 176.529 42.051C181.392 46.7823 187.185 49.148 193.906 49.148C197.355 49.148 199.875 48.6837 201.467 47.7551C202.352 47.2687 202.794 46.4949 202.794 45.4337V34.1582C202.794 31.4609 202.617 29.7364 202.263 28.9847C201.954 28.233 201.136 27.6803 199.809 27.3265C199.279 27.1939 198.527 27.1276 197.554 27.1276C197.2 27.1276 197.023 26.9949 197.023 26.7296C197.023 26.3758 197.377 26.199 198.085 26.199C198.969 26.199 200.008 26.2211 201.202 26.2653C202.396 26.3095 203.413 26.3537 204.253 26.398C205.093 26.398 205.535 26.398 205.58 26.398C205.624 26.398 206.044 26.398 206.84 26.398C207.68 26.3537 208.608 26.3095 209.625 26.2653C210.687 26.2211 211.505 26.199 212.08 26.199C212.787 26.199 213.141 26.3758 213.141 26.7296C213.141 26.9949 212.964 27.1276 212.61 27.1276C212.301 27.1276 211.748 27.1939 210.952 27.3265C210.068 27.5034 209.449 27.8793 209.095 28.4541C208.785 29.0289 208.586 29.9133 208.498 31.1071C208.409 32.5221 208.365 34.8214 208.365 38.0051Z" fill="#BD9042"/>
<path d="M231.799 31.8367V20.1633C231.799 12.0272 231.755 7.2517 231.666 5.83673C231.578 4.64286 231.334 3.78061 230.936 3.25C230.583 2.67517 229.875 2.27721 228.814 2.05612C228.681 2.0119 228.505 1.98979 228.283 1.98979C228.062 1.94558 227.797 1.92347 227.488 1.92347C227.222 1.87925 227.023 1.85714 226.891 1.85714C226.316 1.76871 226.028 1.63605 226.028 1.45918C226.028 1.10544 226.382 0.928571 227.09 0.928571C229.3 0.928571 231.799 0.994897 234.584 1.12755C243.693 1.12755 248.756 1.10544 249.773 1.06122C251.409 0.972788 252.426 0.840136 252.824 0.663265C253.178 0.486394 253.421 0.397958 253.554 0.397958C253.731 0.397958 253.819 0.596938 253.819 0.994897C253.819 1.08333 253.731 1.45918 253.554 2.12245C253.421 2.7415 253.333 3.40476 253.289 4.11224L253.023 8.09184C252.935 8.84354 252.758 9.21939 252.493 9.21939C252.139 9.21939 251.962 8.93197 251.962 8.35714C251.962 7.47279 251.851 6.7432 251.63 6.16837C251.188 4.79762 249.596 3.97959 246.855 3.71429C245.705 3.58163 242.676 3.5153 237.768 3.5153C237.503 3.5153 237.37 3.73639 237.37 4.17857V22.4847C237.37 22.9269 237.503 23.148 237.768 23.148C243.782 23.148 247.297 23.1037 248.314 23.0153C249.994 22.8827 251.1 22.5068 251.63 21.8878C251.984 21.4456 252.249 21.2245 252.426 21.2245C252.647 21.2245 252.758 21.4014 252.758 21.7551C252.758 21.8435 252.714 22.0425 252.625 22.352C252.581 22.6616 252.515 23.1037 252.426 23.6786C252.338 24.2534 252.272 24.8503 252.227 25.4694C252.139 26.2653 252.073 27.216 252.028 28.3214C251.984 29.3827 251.962 29.9354 251.962 29.9796C251.874 30.6429 251.719 30.9745 251.498 30.9745C251.188 30.9745 251.033 30.6207 251.033 29.9133C251.033 29.2058 250.945 28.5867 250.768 28.0561C250.459 26.818 249.309 26.0884 247.319 25.8673C245.329 25.6463 242.168 25.5357 237.834 25.5357C237.525 25.5357 237.37 25.6905 237.37 26V31.8367C237.37 32.2347 237.37 33.3844 237.37 35.2857C237.37 37.1429 237.37 38.8231 237.37 40.3265C237.37 41.8299 237.37 42.7806 237.37 43.1786C237.459 44.6378 237.635 45.7432 237.901 46.4949C238.21 47.2024 238.763 47.7109 239.559 48.0204C240.532 48.4184 242.367 48.6173 245.064 48.6173C247.717 48.6173 249.707 48.4184 251.033 48.0204C252.05 47.7109 252.802 47.2024 253.289 46.4949C253.775 45.7432 254.151 44.6156 254.416 43.1122C254.549 42.449 254.748 42.1173 255.013 42.1173C255.278 42.1173 255.411 42.449 255.411 43.1122C255.411 43.4218 255.3 44.4167 255.079 46.0969C254.858 47.7772 254.681 48.9269 254.549 49.5459C254.328 50.3861 254.018 50.8724 253.62 51.0051C253.222 51.182 252.338 51.2704 250.967 51.2704C249.685 51.2704 246.457 51.2041 241.283 51.0714C235.977 50.9388 233.214 50.8724 232.993 50.8724C232.55 50.8724 231.777 50.9167 230.671 51.0051C229.566 51.0935 228.703 51.1156 228.084 51.0714C227.377 51.0714 227.023 50.8946 227.023 50.5408C227.023 50.3639 227.266 50.2313 227.753 50.1429C228.593 50.0544 229.101 49.9881 229.278 49.9439C230.074 49.767 230.649 49.2585 231.003 48.4184C231.401 47.5782 231.622 46.0085 231.666 43.7092C231.755 40.2602 231.799 36.3027 231.799 31.8367Z" fill="#BD9042"/>
<path d="M273.409 41.3214V31.5051C273.409 24.8282 273.409 19.8095 273.409 16.449C273.453 13.0442 273.475 11.2534 273.475 11.0765C273.475 10.8554 273.475 8.26871 273.475 3.31633C273.475 1.10544 273.718 0 274.205 0C274.382 0 274.581 0.110544 274.802 0.331632C275.067 0.552721 275.399 0.884353 275.797 1.32653C276.194 1.76871 276.438 2.03401 276.526 2.12245C278.162 3.97959 285.193 11.5629 297.618 24.8724C299.917 27.3486 302.968 30.6871 306.771 34.8878C310.618 39.0884 312.873 41.5204 313.536 42.1837L312.807 8.48979C312.763 6.27891 312.564 4.7534 312.21 3.91327C311.9 3.02891 311.237 2.45408 310.22 2.18877C309.247 1.96769 308.297 1.85714 307.368 1.85714C306.749 1.85714 306.439 1.70238 306.439 1.39285C306.439 1.08333 306.882 0.928571 307.766 0.928571C308.96 0.928571 310.397 0.972788 312.077 1.06122C313.757 1.10544 314.62 1.12755 314.664 1.12755C314.752 1.12755 315.438 1.10544 316.72 1.06122C318.047 0.972788 319.24 0.928571 320.302 0.928571C321.098 0.928571 321.496 1.08333 321.496 1.39285C321.496 1.61394 321.252 1.76871 320.766 1.85714C320.412 1.90136 319.837 1.9898 319.041 2.12245C318.113 2.34354 317.494 2.82993 317.184 3.58163C316.875 4.33333 316.72 5.83673 316.72 8.09184L316.587 46.8265C316.587 47.932 316.565 48.7942 316.521 49.4133C316.521 50.0323 316.499 50.4966 316.455 50.8061C316.41 51.1156 316.344 51.3146 316.256 51.4031C316.212 51.4915 316.123 51.5357 315.99 51.5357C315.592 51.5357 313.979 50.1207 311.149 47.2908C310.883 47.0255 309.844 45.9864 308.031 44.1735C306.218 42.3163 303.919 39.9507 301.133 37.0765C298.392 34.2024 295.96 31.6156 293.837 29.3163C287.647 22.6395 281.876 16.2942 276.526 10.2806L277.388 42.051C277.433 44.7483 277.632 46.6497 277.985 47.7551C278.383 48.8163 279.047 49.4796 279.975 49.7449C280.992 50.0102 282.098 50.1429 283.291 50.1429C283.645 50.1429 283.822 50.2755 283.822 50.5408C283.822 50.8946 283.424 51.0714 282.628 51.0714C281.523 51.0714 280.417 51.0493 279.312 51.0051C278.251 51.0051 277.388 50.983 276.725 50.9388C276.062 50.8946 275.686 50.8724 275.598 50.8724L273.342 51.0051C271.795 51.0493 270.424 51.0714 269.23 51.0714C268.523 51.0714 268.169 50.8946 268.169 50.5408C268.169 50.2755 268.346 50.1429 268.7 50.1429C269.717 50.1429 270.623 50.0102 271.419 49.7449C272.215 49.5238 272.746 48.8384 273.011 47.6888C273.276 46.5391 273.409 44.4167 273.409 41.3214Z" fill="#BD9042"/>
<path d="M355.87 3.78061V31.8367C355.87 39.5748 355.981 44.3724 356.202 46.2296C356.335 47.335 356.556 48.1973 356.865 48.8163C357.219 49.3912 357.86 49.7449 358.789 49.8775C360.027 50.0544 361.022 50.1429 361.773 50.1429C362.127 50.1429 362.304 50.2755 362.304 50.5408C362.304 50.8946 361.95 51.0714 361.243 51.0714C360.182 51.0714 358.988 51.0493 357.661 51.0051C356.379 51.0051 355.295 50.983 354.411 50.9388C353.571 50.8946 353.129 50.8724 353.085 50.8724C353.04 50.8724 352.598 50.8724 351.758 50.8724C350.962 50.9167 350.034 50.9609 348.972 51.0051C347.955 51.0493 347.159 51.0714 346.585 51.0714C345.877 51.0714 345.523 50.8946 345.523 50.5408C345.523 50.2755 345.7 50.1429 346.054 50.1429C346.585 50.1429 347.248 50.0544 348.044 49.8775C349.017 49.7007 349.658 48.4847 349.967 46.2296C350.188 44.3724 350.299 39.5748 350.299 31.8367V3.78061C349.238 3.78061 347.602 3.80272 345.391 3.84694C343.18 3.89116 341.544 3.91327 340.483 3.91327C338.404 3.95748 336.879 4.13435 335.906 4.44388C334.977 4.70918 334.248 5.2398 333.717 6.03571C333.231 6.78741 332.855 7.47279 332.59 8.09184C332.413 8.53401 332.192 8.7551 331.926 8.7551C331.705 8.7551 331.595 8.55612 331.595 8.15816C331.595 7.45068 332.081 5.15136 333.054 1.2602C333.319 0.420068 333.54 0 333.717 0C333.806 0 334.137 0.132653 334.712 0.397958C335.287 0.619046 335.928 0.751699 336.636 0.795916C338.758 1.017 340.505 1.12755 341.875 1.12755H366.748C368.693 1.12755 370.263 1.017 371.457 0.795916C371.722 0.751699 371.988 0.707482 372.253 0.663265C372.562 0.619048 372.784 0.574829 372.916 0.530609C373.093 0.486392 373.226 0.464284 373.314 0.464284C373.535 0.464284 373.646 0.72959 373.646 1.2602C373.646 2.01191 373.602 3.38265 373.513 5.37245C373.469 7.36224 373.447 8.42347 373.447 8.55612C373.447 9.13095 373.292 9.41837 372.983 9.41837C372.673 9.41837 372.496 9.04252 372.452 8.29082C372.452 8.20238 372.43 8.09184 372.386 7.95918C372.386 7.78231 372.386 7.64966 372.386 7.56122C372.165 5.21769 369.445 4.0017 364.227 3.91327C363.299 3.91327 361.906 3.89116 360.049 3.84694C358.192 3.80272 356.799 3.78061 355.87 3.78061Z" fill="#BD9042"/>
<line x1="392.3" y1="25.5855" x2="442.045" y2="25.5855" stroke="#BD9042" stroke-width="0.829082"/>
</svg>
